Coordinates
version=1
nRows=9
nColumns=24
inDegrees=yes

Units are S.I. units (second, meters, Newtons, ...)
Angles are in degrees.

endheader
time	pelvis_tilt	pelvis_list	pelvis_rotation	pelvis_tx	pelvis_ty	pelvis_tz	hip_flexion_r	hip_adduction_r	hip_rotation_r	knee_angle_r	ankle_angle_r	subtalar_angle_r	mtp_angle_r	hip_flexion_l	hip_adduction_l	hip_rotation_l	knee_angle_l	ankle_angle_l	subtalar_angle_l	mtp_angle_l	lumbar_extension	lumbar_bending	lumbar_rotation
      2.71000000	    -12.12009459	      8.95695199	     -3.28505532	     -2.29909942	     -0.03350453	     -0.27580177	     16.83452112	    -14.95091633	     -6.22396637	    -60.99289521	    -25.26315818	    -20.86627500	     -0.37586697	     30.13929951	      8.88833869	     -6.25489850	    -22.02634012	     -1.92872630	    -14.97139370	     -9.97388580	      8.65162099	     -8.63061340	      3.34746203
      2.71500000	    -12.02602994	      8.84811813	     -3.24242811	     -2.29165709	     -0.03193785	     -0.27636113	     17.80643523	    -14.72365462	     -6.04432186	    -61.86633804	    -23.97261488	    -20.91226618	      0.02023849	     29.32782299	      8.91756178	     -6.15277099	    -21.66462158	     -1.52870032	    -14.78242708	     -9.85714207	      8.50419736	     -8.51669792	      3.17063449
      2.72000000	    -11.95642136	      8.70145430	     -3.19169590	     -2.28421647	     -0.03034470	     -0.27693171	     18.77361405	    -14.46254384	     -5.93472334	    -62.59163309	    -22.82308796	    -20.92287683	      0.64003960	     28.52730575	      8.91697732	     -5.97782690	    -21.27720858	     -1.19797787	    -14.65843017	     -9.76459281	      8.38614438	     -8.36061533	      2.98259758
      2.72500000	    -11.85539837	      8.53719139	     -3.20277239	     -2.27682408	     -0.02870803	     -0.27751334	     19.70391184	    -14.17643785	     -5.78230091	    -63.18082361	    -21.82593999	    -20.76867316	      2.13255287	     27.68336638	      8.88863768	     -5.80781887	    -20.85752179	     -0.92859075	    -14.68085043	     -9.74194322	      8.23850814	     -8.15853974	      2.85672506
      2.73000000	    -11.76013395	      8.26594613	     -3.10475318	     -2.26943097	     -0.02703316	     -0.27820431	     20.53050532	    -13.81381526	     -5.79444244	    -63.54889309	    -21.25343298	    -20.74764525	      5.06906642	     26.84731339	      8.79297254	     -5.49569271	    -20.48175021	     -0.54309808	    -14.52941452	     -9.84403246	      8.07586784	     -7.86581430	      2.57349646
      2.73500000	    -11.66677891	      8.01385115	     -3.07871144	     -2.26205216	     -0.02539620	     -0.27874273	     21.39572578	    -13.44679609	     -5.79925922	    -63.91928191	    -20.13956433	    -20.32047952	      5.59731494	     26.01055181	      8.66907947	     -5.30074191	    -20.08046712	     -0.21192149	    -14.40020103	     -9.79305741	      7.93391509	     -7.58254811	      2.41477072
      2.74000000	    -11.54482432	      7.77317786	     -3.03753614	     -2.25468710	     -0.02372843	     -0.27943167	     22.17656800	    -13.11841221	     -5.79525429	    -64.07887711	    -19.58590177	    -20.04109420	      8.82339333	     25.11963837	      8.59728271	     -4.97584672	    -19.63001918	      0.07636810	    -14.44985709	    -10.26656076	      7.75991437	     -7.30065571	      2.22258672
      2.74500000	    -11.43923207	      7.53400859	     -3.03904737	     -2.24740456	     -0.02215425	     -0.27993557	     23.00870332	    -12.75719665	     -5.79993070	    -64.26384305	    -18.53104923	    -19.43060922	      9.48976040	     24.25872498	      8.47411880	     -4.77752334	    -19.18398738	      0.34390630	    -14.38499403	    -10.28800795	      7.60072857	     -7.02308807	      2.08335526
      2.75000000	    -11.32677655	      7.25711758	     -2.95853235	     -2.24001462	     -0.02054387	     -0.28066487	     23.72267622	    -12.40813437	     -5.89976053	    -64.19713743	    -18.02784934	    -19.09483190	     12.65798377	     23.36142472	      8.36947458	     -4.44192148	    -18.70621919	      0.64648889	    -14.40462984	    -10.88052688	      7.44507402	     -6.70145820	      1.86769144
